<svg width="181" height="22" viewBox="0 0 181 22" fill="none" xmlns="http://www.w3.org/2000/svg">
<path d="M11.2593 21.94C9.65508 21.94 8.16968 21.6706 6.80312 21.1319C5.43655 20.5731 4.23833 19.8049 3.20846 18.8271C2.19839 17.8294 1.40618 16.662 0.831822 15.3251C0.277274 13.9881 0 12.5414 0 10.9849C0 9.40847 0.277274 7.96176 0.831822 6.64475C1.40618 5.30779 2.19839 4.15042 3.20846 3.17264C4.23833 2.19486 5.42665 1.42661 6.77341 0.867879C8.13997 0.309149 9.61547 0.0297852 11.1999 0.0297852C12.8635 0.0297852 14.3588 0.299173 15.6858 0.837948C17.0127 1.35677 18.1813 2.08511 19.1913 3.02298L15.6264 6.61482C15.1312 6.05609 14.5173 5.61708 13.7845 5.29781C13.0517 4.97853 12.1902 4.8189 11.1999 4.8189C10.3483 4.8189 9.56595 4.95858 8.85296 5.23795C8.15978 5.51731 7.55572 5.93636 7.04078 6.49509C6.52584 7.03386 6.11983 7.68239 5.82275 8.44067C5.54548 9.19894 5.40684 10.0471 5.40684 10.9849C5.40684 11.9228 5.54548 12.7709 5.82275 13.5292C6.11983 14.2874 6.52584 14.9459 7.04078 15.5047C7.55572 16.0434 8.15978 16.4625 8.85296 16.7618C9.56595 17.0412 10.3483 17.1809 11.1999 17.1809C12.1902 17.1809 13.0616 17.0312 13.8142 16.7319C14.5668 16.4126 15.2105 15.9636 15.7452 15.3849L19.3102 18.9768C18.2803 19.9146 17.1118 20.643 15.8046 21.1618C14.5173 21.6806 13.0022 21.94 11.2593 21.94Z" fill="black"/>
<path d="M19.542 21.6109L27.7117 0.38916H32.8512L40.9317 21.6109H35.3763L29.2862 3.77147H31.2172L24.9786 21.6109H19.542Z" fill="black"/>
<path d="M42.9036 21.6109V0.38916H48.2213V21.6109H42.9036ZM47.1221 21.6109V17.0014H57.2822V21.6109H47.1221Z" fill="black"/>
<path d="M59.7594 21.6109V0.38916H65.0771V21.6109H59.7594Z" fill="black"/>
<path d="M68.811 21.6109V0.38916H74.1287V21.6109H68.811ZM73.0295 13.6789V9.15923H83.457V13.6789H73.0295ZM73.0295 4.90888V0.38916H83.9323V4.90888H73.0295Z" fill="black"/>
<path d="M96.7283 22C95.1043 22 93.609 21.7206 92.2424 21.1619C90.8759 20.6032 89.6776 19.8249 88.6478 18.8272C87.6377 17.8295 86.8455 16.6621 86.2711 15.3252C85.6968 13.9683 85.4096 12.5116 85.4096 10.9551C85.4096 9.39864 85.6869 7.96191 86.2414 6.6449C86.8158 5.30794 87.608 4.14059 88.6181 3.14286C89.6281 2.14512 90.8165 1.37687 92.183 0.838097C93.5496 0.279366 95.0449 0 96.6689 0C98.293 0 99.7883 0.279366 101.155 0.838097C102.521 1.37687 103.71 2.14512 104.72 3.14286C105.73 4.14059 106.512 5.30794 107.067 6.6449C107.641 7.98186 107.928 9.42857 107.928 10.985C107.928 12.5415 107.641 13.9882 107.067 15.3252C106.512 16.6621 105.73 17.8395 104.72 18.8571C103.71 19.8549 102.521 20.6331 101.155 21.1918C99.8081 21.7306 98.3326 22 96.7283 22ZM96.6689 17.2109C97.8572 17.2109 98.8871 16.9515 99.7586 16.4327C100.63 15.9138 101.303 15.1855 101.779 14.2476C102.254 13.3098 102.492 12.2122 102.492 10.9551C102.492 10.0372 102.353 9.19909 102.076 8.44082C101.818 7.68254 101.432 7.03401 100.917 6.49524C100.402 5.93651 99.7882 5.50748 99.0753 5.20816C98.3623 4.90884 97.5602 4.75919 96.6689 4.75919C95.4806 4.75919 94.4507 5.0186 93.5793 5.53742C92.7079 6.03628 92.0345 6.75465 91.5592 7.69252C91.0838 8.63039 90.8462 9.71792 90.8462 10.9551C90.8462 11.9129 90.9749 12.781 91.2324 13.5592C91.5096 14.3175 91.9057 14.976 92.4207 15.5347C92.9356 16.0735 93.5496 16.4925 94.2626 16.7918C94.9756 17.0712 95.7777 17.2109 96.6689 17.2109Z" fill="black"/>
<path d="M114.806 13.0204V9.18916H118.817C119.688 9.18916 120.352 8.97963 120.807 8.56059C121.283 8.12158 121.52 7.53292 121.52 6.7946C121.52 6.07623 121.283 5.49755 120.807 5.05854C120.352 4.59959 119.688 4.37011 118.817 4.37011H114.806V0.38916H119.56C120.986 0.38916 122.233 0.658548 123.303 1.19732C124.392 1.7361 125.244 2.47442 125.858 3.41229C126.472 4.35015 126.779 5.44766 126.779 6.7048C126.779 7.96194 126.462 9.06943 125.828 10.0272C125.214 10.9651 124.352 11.7034 123.243 12.2422C122.134 12.761 120.837 13.0204 119.352 13.0204H114.806ZM110.588 21.6109V0.38916H115.906V21.6109H110.588ZM121.996 21.6109L115.876 12.5116L120.659 11.3442L128.145 21.6109H121.996Z" fill="black"/>
<path d="M129.881 21.6109V0.38916H133.594L135.198 4.72929V21.6109H129.881ZM144.408 21.6109L132.109 5.86671L133.594 0.38916L145.923 16.1333L144.408 21.6109ZM144.408 21.6109L143.041 17.151V0.38916H148.359V21.6109H144.408Z" fill="black"/>
<path d="M152.103 21.6109V0.38916H157.421V21.6109H152.103Z" fill="black"/>
<path d="M159.61 21.6109L167.78 0.38916H172.919L181 21.6109H175.445L169.354 3.77147H171.286L165.047 21.6109H159.61Z" fill="black"/>
</svg>
